<svg width="20" height="20" viewBox="0 0 20 20" fill="none" xmlns="http://www.w3.org/2000/svg">
<path fill-rule="evenodd" clip-rule="evenodd" d="M10 15.4546C13.0125 15.4546 15.4546 13.0125 15.4546 10C15.4546 6.98756 13.0125 4.54547 10 4.54547C6.98756 4.54547 4.54547 6.98756 4.54547 10C4.54547 13.0125 6.98756 15.4546 10 15.4546ZM10 13.6364C12.0083 13.6364 13.6364 12.0083 13.6364 10C13.6364 7.99171 12.0083 6.36366 10 6.36366C7.99171 6.36366 6.36366 7.99171 6.36366 10C6.36366 12.0083 7.99171 13.6364 10 13.6364Z" fill="black"/>
<path d="M15.4546 3.63638C14.9525 3.63638 14.5455 4.0434 14.5455 4.54548C14.5455 5.04755 14.9525 5.45457 15.4546 5.45457C15.9567 5.45457 16.3637 5.04755 16.3637 4.54548C16.3637 4.0434 15.9567 3.63638 15.4546 3.63638Z" fill="black"/>
<path fill-rule="evenodd" clip-rule="evenodd" d="M0.59451 2.97824C0 4.14503 0 5.67245 0 8.72728V11.2727C0 14.3276 0 15.855 0.59451 17.0217C1.11746 18.0481 1.95189 18.8826 2.97824 19.4055C4.14503 20 5.67245 20 8.72728 20H11.2727C14.3276 20 15.855 20 17.0217 19.4055C18.0481 18.8826 18.8826 18.0481 19.4055 17.0217C20 15.855 20 14.3276 20 11.2727V8.72728C20 5.67245 20 4.14503 19.4055 2.97824C18.8826 1.95189 18.0481 1.11746 17.0217 0.59451C15.855 0 14.3276 0 11.2727 0H8.72728C5.67245 0 4.14503 0 2.97824 0.59451C1.95189 1.11746 1.11746 1.95189 0.59451 2.97824ZM11.2727 1.81818H8.72728C7.16986 1.81818 6.11114 1.8196 5.29281 1.88646C4.49568 1.95158 4.08804 2.06963 3.80368 2.21452C3.11945 2.56316 2.56316 3.11945 2.21452 3.80368C2.06963 4.08804 1.95158 4.49568 1.88646 5.29281C1.8196 6.11114 1.81818 7.16986 1.81818 8.72728V11.2727C1.81818 12.8302 1.8196 13.8888 1.88646 14.7072C1.95158 15.5044 2.06963 15.912 2.21452 16.1964C2.56316 16.8806 3.11945 17.4368 3.80368 17.7855C4.08804 17.9304 4.49568 18.0485 5.29281 18.1136C6.11114 18.1804 7.16986 18.1818 8.72728 18.1818H11.2727C12.8302 18.1818 13.8888 18.1804 14.7072 18.1136C15.5044 18.0485 15.912 17.9304 16.1964 17.7855C16.8806 17.4368 17.4368 16.8806 17.7855 16.1964C17.9304 15.912 18.0485 15.5044 18.1136 14.7072C18.1804 13.8888 18.1818 12.8302 18.1818 11.2727V8.72728C18.1818 7.16986 18.1804 6.11114 18.1136 5.29281C18.0485 4.49568 17.9304 4.08804 17.7855 3.80368C17.4368 3.11945 16.8806 2.56316 16.1964 2.21452C15.912 2.06963 15.5044 1.95158 14.7072 1.88646C13.8888 1.8196 12.8302 1.81818 11.2727 1.81818Z" fill="black"/>
</svg>
