<svg width="12" height="12" viewBox="0 0 12 12" fill="none" xmlns="http://www.w3.org/2000/svg">
<circle cx="6.00003" cy="6" r="6" fill="#DEF7E4"/>
<path fill-rule="evenodd" clip-rule="evenodd" d="M6.00001 7.6365C6.90375 7.6365 7.63638 6.90387 7.63638 6.00013C7.63638 5.09639 6.90375 4.36377 6.00001 4.36377C5.09627 4.36377 4.36365 5.09639 4.36365 6.00013C4.36365 6.90387 5.09627 7.6365 6.00001 7.6365ZM6.00001 7.09104C6.6025 7.09104 7.09092 6.60262 7.09092 6.00013C7.09092 5.39764 6.6025 4.90922 6.00001 4.90922C5.39752 4.90922 4.9091 5.39764 4.9091 6.00013C4.9091 6.60262 5.39752 7.09104 6.00001 7.09104Z" fill="#0F0F0F"/>
<path d="M7.63637 4.09082C7.48575 4.09082 7.36365 4.21293 7.36365 4.36355C7.36365 4.51417 7.48575 4.63628 7.63637 4.63628C7.787 4.63628 7.9091 4.51417 7.9091 4.36355C7.9091 4.21293 7.787 4.09082 7.63637 4.09082Z" fill="#0F0F0F"/>
<path fill-rule="evenodd" clip-rule="evenodd" d="M3.17835 3.89347C3 4.24351 3 4.70174 3 5.61818V6.38182C3 7.29827 3 7.7565 3.17835 8.10652C3.33524 8.41443 3.58557 8.66477 3.89347 8.82164C4.24351 9.00001 4.70174 9.00001 5.61818 9.00001H6.38182C7.29827 9.00001 7.7565 9.00001 8.10652 8.82164C8.41443 8.66477 8.66477 8.41443 8.82164 8.10652C9.00001 7.7565 9.00001 7.29827 9.00001 6.38182V5.61818C9.00001 4.70174 9.00001 4.24351 8.82164 3.89347C8.66477 3.58557 8.41443 3.33524 8.10652 3.17835C7.7565 3 7.29827 3 6.38182 3H5.61818C4.70174 3 4.24351 3 3.89347 3.17835C3.58557 3.33524 3.33524 3.58557 3.17835 3.89347ZM6.38182 3.54546H5.61818C5.15096 3.54546 4.83334 3.54588 4.58784 3.56594C4.3487 3.58548 4.22641 3.62089 4.1411 3.66436C3.93583 3.76895 3.76895 3.93583 3.66436 4.1411C3.62089 4.22641 3.58548 4.3487 3.56594 4.58784C3.54588 4.83334 3.54546 5.15096 3.54546 5.61818V6.38182C3.54546 6.84906 3.54588 7.16665 3.56594 7.41216C3.58548 7.65131 3.62089 7.7736 3.66436 7.85891C3.76895 8.06417 3.93583 8.23105 4.1411 8.33564C4.22641 8.37911 4.3487 8.41454 4.58784 8.43407C4.83334 8.45411 5.15096 8.45455 5.61818 8.45455H6.38182C6.84906 8.45455 7.16665 8.45411 7.41216 8.43407C7.65131 8.41454 7.7736 8.37911 7.85891 8.33564C8.06417 8.23105 8.23105 8.06417 8.33564 7.85891C8.37911 7.7736 8.41454 7.65131 8.43407 7.41216C8.45411 7.16665 8.45455 6.84906 8.45455 6.38182V5.61818C8.45455 5.15096 8.45411 4.83334 8.43407 4.58784C8.41454 4.3487 8.37911 4.22641 8.33564 4.1411C8.23105 3.93583 8.06417 3.76895 7.85891 3.66436C7.7736 3.62089 7.65131 3.58548 7.41216 3.56594C7.16665 3.54588 6.84906 3.54546 6.38182 3.54546Z" fill="#0F0F0F"/>
</svg>
