<svg width="12" height="12" viewBox="0 0 12 12" fill="none" xmlns="http://www.w3.org/2000/svg">
<circle cx="6" cy="6" r="6" fill="#DEF7E4"/>
<path fill-rule="evenodd" clip-rule="evenodd" d="M8.84932 4.4364C8.78908 4.4764 8.7552 4.5384 8.75896 4.6032C8.76132 4.6612 8.7632 4.7192 8.7632 4.778C8.7632 6.6564 7.20695 8.6 4.60271 8.6C4.09353 8.6 3.59188 8.514 3.12035 8.348C3.68882 8.268 4.23047 8.056 4.68271 7.7324C4.75753 7.6784 4.78529 7.5912 4.75283 7.5128C4.72035 7.4344 4.63377 7.3812 4.53541 7.3792C4.09635 7.3716 3.6987 7.1572 3.46717 6.8224C3.62576 6.8184 3.79659 6.7972 3.92459 6.7656C4.02812 6.74 4.09776 6.658 4.09447 6.5668C4.09071 6.4752 4.01447 6.3976 3.90905 6.378C3.44176 6.292 3.09776 5.9644 2.98152 5.5144C3.11517 5.5372 3.24129 5.5444 3.31094 5.546C3.41352 5.5556 3.50811 5.4948 3.54199 5.4112C3.57541 5.328 3.54105 5.2356 3.45682 5.184C3.13164 4.9848 2.7834 4.6132 2.7834 4.1696C2.7834 4.0604 2.7994 3.9524 2.82999 3.848C3.64317 4.6172 4.75283 5.0816 5.9293 5.1356C6.00836 5.1392 6.07377 5.1128 6.1213 5.0656C6.16883 5.0184 6.18766 4.9544 6.1726 4.8936C6.14907 4.8028 6.1373 4.7088 6.1373 4.6136C6.1373 3.9444 6.72507 3.4 7.44743 3.4C7.81072 3.4 8.14861 3.534 8.39802 3.778C8.45355 3.8324 8.54108 3.8576 8.6239 3.8424C8.74343 3.8208 8.86108 3.7936 8.97685 3.7604C8.90814 3.8196 8.83238 3.8724 8.75002 3.9176C8.65731 3.9684 8.61873 4.0664 8.65638 4.1544C8.69402 4.2424 8.80038 4.2956 8.90767 4.284C8.96885 4.2772 9.02955 4.2692 9.08979 4.2592C9.01355 4.322 8.93355 4.3812 8.84932 4.4364ZM9.93968 3.7292C9.87003 3.6632 9.75803 3.64481 9.66297 3.6824C9.64603 3.6892 9.62908 3.696 9.61168 3.7028C9.68273 3.5956 9.74062 3.4808 9.7825 3.3604C9.81074 3.2804 9.77732 3.194 9.69873 3.1436C9.61968 3.0936 9.51332 3.0896 9.43003 3.1348C9.1872 3.2672 8.92602 3.3644 8.65308 3.4256C8.32696 3.1536 7.89496 3 7.44743 3C6.46578 3 5.66671 3.724 5.66671 4.6136C5.66671 4.6472 5.66766 4.6808 5.67001 4.714C4.60836 4.5972 3.62717 4.1048 2.94435 3.338C2.89635 3.284 2.8187 3.2564 2.73917 3.2596C2.65917 3.2648 2.58764 3.304 2.54952 3.364C2.3947 3.608 2.31282 3.8868 2.31282 4.1696C2.31282 4.4764 2.43235 4.754 2.60553 4.9868C2.52458 5.0188 2.46811 5.088 2.46811 5.1688V5.1872C2.46811 5.6824 2.67564 6.1148 3.02435 6.4072C2.9867 6.4176 2.95235 6.4364 2.92459 6.4616C2.89707 6.4871 2.8778 6.51823 2.86864 6.55195C2.85949 6.58567 2.86076 6.62083 2.87235 6.654C3.04223 7.1392 3.44647 7.5116 3.94906 7.6804C3.43706 7.9268 2.82952 8.0244 2.26387 7.9664C2.15329 7.9524 2.05352 8.0084 2.0154 8.094C1.97681 8.18 2.01258 8.2776 2.10199 8.3296C2.8507 8.768 3.71565 9 4.60271 9C7.50155 9 9.23379 6.8532 9.23379 4.778C9.23379 4.7476 9.23332 4.7176 9.23238 4.6876C9.51803 4.4852 9.76368 4.2436 9.96462 3.9684C10.0197 3.8928 10.0098 3.7952 9.93968 3.7292Z" fill="black"/>
</svg>
