<svg width="82" height="82" viewBox="0 0 82 82" fill="none" xmlns="http://www.w3.org/2000/svg">
<circle cx="41" cy="41" r="31" fill="#D22D4A" fill-opacity="0.26"/>
<circle cx="41" cy="41" r="41" fill="#D22D4A" fill-opacity="0.1"/>
<circle cx="41" cy="41" r="23" fill="#D22D4A"/>
<path d="M44.3199 41.4893L43.9505 40.8864C43.7113 41.0311 43.58 41.3017 43.6151 41.5777C43.6501 41.8536 43.8449 42.0834 44.1127 42.1646L44.3199 41.4893ZM37.6801 41.4893L37.8873 42.1646C38.155 42.0834 38.3499 41.8536 38.3849 41.5777C38.4199 41.3017 38.2886 41.0311 38.0495 40.8864L37.6801 41.4893ZM46.6835 36.0588C46.6835 38.103 45.5907 39.8943 43.9505 40.8864L44.6893 42.0923C46.7354 40.8547 48.1044 38.616 48.1044 36.0588H46.6835ZM41 30.4118C44.1389 30.4118 46.6835 32.94 46.6835 36.0588H48.1044C48.1044 32.1603 44.9236 29 41 29V30.4118ZM35.3165 36.0588C35.3165 32.94 37.8611 30.4118 41 30.4118V29C37.0764 29 33.8957 32.1603 33.8957 36.0588H35.3165ZM38.0495 40.8864C36.4093 39.8943 35.3165 38.1031 35.3165 36.0588H33.8957C33.8957 38.616 35.2646 40.8547 37.3107 42.0923L38.0495 40.8864ZM37.4729 40.8141C32.9876 42.173 29.6098 46.0547 29.0157 50.7979L30.4257 50.9723C30.9494 46.7908 33.9296 43.3636 37.8873 42.1646L37.4729 40.8141ZM29.0157 50.7979C28.8587 52.0516 29.9039 53 31.054 53V51.5882C30.6346 51.5882 30.3889 51.2662 30.4257 50.9723L29.0157 50.7979ZM31.054 53H50.9461V51.5882H31.054V53ZM50.9461 53C52.0961 53 53.1413 52.0516 52.9843 50.7979L51.5742 50.9723C51.611 51.2662 51.3654 51.5882 50.9461 51.5882V53ZM52.9843 50.7979C52.3902 46.0547 49.0124 42.173 44.527 40.8141L44.1127 42.1646C48.0704 43.3636 51.0505 46.7908 51.5742 50.9723L52.9843 50.7979Z" fill="white"/>
</svg>
