<svg width="98" height="3" viewBox="0 0 98 3" fill="none" xmlns="http://www.w3.org/2000/svg">
<path d="M14 1.12699C13.7083 1.12699 12.8333 1.72635 12.3229 2.10095C11.4479 2.70032 10.9375 3 10.5 3C10.0625 3 9.47917 2.70032 8.60417 2.02603C8.09375 1.65143 7.29167 1.12699 7 1.12699C6.70833 1.12699 5.90625 1.65143 5.39583 2.02603C4.52083 2.6254 4.01042 3 3.5 3C2.91667 3 2.33333 2.55048 1.67708 2.02603C1.09375 1.65143 0.4375 1.12699 0 1.12699C0 1.20191 0 -0.0717384 0 0.00318205C0.729167 0.00318205 1.53125 0.602546 2.26042 1.12699C2.625 1.42667 3.28125 1.87619 3.5 1.87619C3.71875 1.87619 4.375 1.42667 4.73958 1.12699C5.54167 0.527625 6.34375 0.00318205 6.92708 0.00318205C7.4375 0.00318205 8.09375 0.452705 9.11458 1.12699C9.55208 1.42667 10.2083 1.87619 10.4271 1.87619C10.5729 1.87619 11.1562 1.42667 11.5937 1.12699C12.5417 0.527625 13.3438 0.00318205 14 0.00318205" fill="#DBFF00"/>
<path d="M28 1.12699C27.7083 1.12699 26.8333 1.72635 26.3229 2.10095C25.4479 2.70032 24.9375 3 24.5 3C24.0625 3 23.4792 2.70032 22.6042 2.02603C22.0938 1.65143 21.2917 1.12699 21 1.12699C20.7083 1.12699 19.9062 1.65143 19.3958 2.02603C18.5208 2.6254 18.0104 3 17.5 3C16.9167 3 16.3333 2.55048 15.6771 2.02603C15.0937 1.65143 14.4375 1.12699 14 1.12699C14 1.20191 14 -0.0717384 14 0.00318205C14.7292 0.00318205 15.5312 0.602546 16.2604 1.12699C16.625 1.42667 17.2812 1.87619 17.5 1.87619C17.7188 1.87619 18.375 1.42667 18.7396 1.12699C19.5417 0.527625 20.3437 0.00318205 20.9271 0.00318205C21.4375 0.00318205 22.0938 0.452705 23.1146 1.12699C23.5521 1.42667 24.2083 1.87619 24.4271 1.87619C24.5729 1.87619 25.1562 1.42667 25.5937 1.12699C26.5417 0.527625 27.3438 0.00318205 28 0.00318205" fill="#DBFF00"/>
<path d="M42 1.12699C41.7083 1.12699 40.8333 1.72635 40.3229 2.10095C39.4479 2.70032 38.9375 3 38.5 3C38.0625 3 37.4792 2.70032 36.6042 2.02603C36.0938 1.65143 35.2917 1.12699 35 1.12699C34.7083 1.12699 33.9062 1.65143 33.3958 2.02603C32.5208 2.6254 32.0104 3 31.5 3C30.9167 3 30.3333 2.55048 29.6771 2.02603C29.0937 1.65143 28.4375 1.12699 28 1.12699C28 1.20191 28 -0.0717384 28 0.00318205C28.7292 0.00318205 29.5312 0.602546 30.2604 1.12699C30.625 1.42667 31.2812 1.87619 31.5 1.87619C31.7188 1.87619 32.375 1.42667 32.7396 1.12699C33.5417 0.527625 34.3437 0.00318205 34.9271 0.00318205C35.4375 0.00318205 36.0938 0.452705 37.1146 1.12699C37.5521 1.42667 38.2083 1.87619 38.4271 1.87619C38.5729 1.87619 39.1562 1.42667 39.5937 1.12699C40.5417 0.527625 41.3438 0.00318205 42 0.00318205" fill="#DBFF00"/>
<path d="M56 1.12699C55.7083 1.12699 54.8333 1.72635 54.3229 2.10095C53.4479 2.70032 52.9375 3 52.5 3C52.0625 3 51.4792 2.70032 50.6042 2.02603C50.0938 1.65143 49.2917 1.12699 49 1.12699C48.7083 1.12699 47.9062 1.65143 47.3958 2.02603C46.5208 2.6254 46.0104 3 45.5 3C44.9167 3 44.3333 2.55048 43.6771 2.02603C43.0937 1.65143 42.4375 1.12699 42 1.12699C42 1.20191 42 -0.0717384 42 0.00318205C42.7292 0.00318205 43.5312 0.602546 44.2604 1.12699C44.625 1.42667 45.2812 1.87619 45.5 1.87619C45.7188 1.87619 46.375 1.42667 46.7396 1.12699C47.5417 0.527625 48.3437 0.00318205 48.9271 0.00318205C49.4375 0.00318205 50.0938 0.452705 51.1146 1.12699C51.5521 1.42667 52.2083 1.87619 52.4271 1.87619C52.5729 1.87619 53.1562 1.42667 53.5937 1.12699C54.5417 0.527625 55.3438 0.00318205 56 0.00318205" fill="#DBFF00"/>
<path d="M70 1.12699C69.7083 1.12699 68.8333 1.72635 68.3229 2.10095C67.4479 2.70032 66.9375 3 66.5 3C66.0625 3 65.4792 2.70032 64.6042 2.02603C64.0938 1.65143 63.2917 1.12699 63 1.12699C62.7083 1.12699 61.9062 1.65143 61.3958 2.02603C60.5208 2.6254 60.0104 3 59.5 3C58.9167 3 58.3333 2.55048 57.6771 2.02603C57.0937 1.65143 56.4375 1.12699 56 1.12699C56 1.20191 56 -0.0717384 56 0.00318205C56.7292 0.00318205 57.5312 0.602546 58.2604 1.12699C58.625 1.42667 59.2812 1.87619 59.5 1.87619C59.7188 1.87619 60.375 1.42667 60.7396 1.12699C61.5417 0.527625 62.3437 0.00318205 62.9271 0.00318205C63.4375 0.00318205 64.0938 0.452705 65.1146 1.12699C65.5521 1.42667 66.2083 1.87619 66.4271 1.87619C66.5729 1.87619 67.1562 1.42667 67.5937 1.12699C68.5417 0.527625 69.3438 0.00318205 70 0.00318205" fill="#DBFF00"/>
<path d="M84 1.12699C83.7083 1.12699 82.8333 1.72635 82.3229 2.10095C81.4479 2.70032 80.9375 3 80.5 3C80.0625 3 79.4792 2.70032 78.6042 2.02603C78.0938 1.65143 77.2917 1.12699 77 1.12699C76.7083 1.12699 75.9062 1.65143 75.3958 2.02603C74.5208 2.6254 74.0104 3 73.5 3C72.9167 3 72.3333 2.55048 71.6771 2.02603C71.0937 1.65143 70.4375 1.12699 70 1.12699C70 1.20191 70 -0.0717384 70 0.00318205C70.7292 0.00318205 71.5312 0.602546 72.2604 1.12699C72.625 1.42667 73.2812 1.87619 73.5 1.87619C73.7188 1.87619 74.375 1.42667 74.7396 1.12699C75.5417 0.527625 76.3437 0.00318205 76.9271 0.00318205C77.4375 0.00318205 78.0938 0.452705 79.1146 1.12699C79.5521 1.42667 80.2083 1.87619 80.4271 1.87619C80.5729 1.87619 81.1562 1.42667 81.5937 1.12699C82.5417 0.527625 83.3438 0.00318205 84 0.00318205" fill="#DBFF00"/>
<path d="M98 1.12699C97.7083 1.12699 96.8333 1.72635 96.3229 2.10095C95.4479 2.70032 94.9375 3 94.5 3C94.0625 3 93.4792 2.70032 92.6042 2.02603C92.0938 1.65143 91.2917 1.12699 91 1.12699C90.7083 1.12699 89.9062 1.65143 89.3958 2.02603C88.5208 2.6254 88.0104 3 87.5 3C86.9167 3 86.3333 2.55048 85.6771 2.02603C85.0937 1.65143 84.4375 1.12699 84 1.12699C84 1.20191 84 -0.0717384 84 0.00318205C84.7292 0.00318205 85.5312 0.602546 86.2604 1.12699C86.625 1.42667 87.2812 1.87619 87.5 1.87619C87.7188 1.87619 88.375 1.42667 88.7396 1.12699C89.5417 0.527625 90.3437 0.00318205 90.9271 0.00318205C91.4375 0.00318205 92.0938 0.452705 93.1146 1.12699C93.5521 1.42667 94.2083 1.87619 94.4271 1.87619C94.5729 1.87619 95.1562 1.42667 95.5937 1.12699C96.5417 0.527625 97.3438 0.00318205 98 0.00318205" fill="#DBFF00"/>
</svg>
