<svg width="20" height="20" viewBox="0 0 20 20" fill="none" xmlns="http://www.w3.org/2000/svg">
<path fill-rule="evenodd" clip-rule="evenodd" d="M17.2727 0C18.779 0 20 1.22105 20 2.72727V17.2727C20 18.779 18.779 20 17.2727 20H2.72727C1.22105 20 0 18.779 0 17.2727V2.72727C0 1.22105 1.22105 0 2.72727 0H17.2727ZM17.2727 1.81818C17.7748 1.81818 18.1818 2.2252 18.1818 2.72727V17.2727C18.1818 17.7748 17.7748 18.1818 17.2727 18.1818H12.7273V11.8181H14.6147C15.006 11.8181 15.3534 11.5677 15.4772 11.1965L15.8799 9.98827C16.0271 9.54673 15.6985 9.09082 15.2331 9.09082H12.7273V7.27265C12.7273 6.81811 13.1818 6.36356 13.6364 6.36356H15.4545C15.9566 6.36356 16.3636 5.95655 16.3636 5.45447V4.83085C16.3636 4.53719 16.1761 4.27391 15.8921 4.19897C14.7005 3.8845 13.6364 3.8845 13.6364 3.8845C11.3636 3.8845 10 5.45447 10 6.81811V9.09082H8.18182C7.67975 9.09082 7.27273 9.49782 7.27273 9.99991V10.909C7.27273 11.4111 7.67974 11.8181 8.18182 11.8181H10V18.1818H2.72727C2.2252 18.1818 1.81818 17.7748 1.81818 17.2727V2.72727C1.81818 2.2252 2.2252 1.81818 2.72727 1.81818H17.2727Z" fill="black"/>
</svg>
