<svg width="20" height="16" viewBox="0 0 20 16" fill="none" xmlns="http://www.w3.org/2000/svg">
<path d="M13.1272 1.23077C14.1594 1.23077 15.3306 1.632 15.9869 2.30031C16.8028 2.14523 17.5729 1.86154 18.265 1.46831C17.9978 2.26892 17.4277 2.94092 16.6871 3.36554C17.4119 3.28123 18.1059 3.09846 18.749 2.82462C18.2675 3.512 17.6596 4.11692 16.9581 4.60123C16.9644 4.74769 16.9681 4.89538 16.9681 5.04308C16.9681 9.57662 13.4843 14.7692 6.87995 14.7692C4.85326 14.7692 2.83662 14.2357 1.24934 13.2622C1.52971 13.2954 1.81574 13.3114 2.1049 13.3114C3.78711 13.3114 5.33541 12.7631 6.56563 11.8412C4.99281 11.8148 3.66641 10.8222 3.21129 9.46031C3.42942 9.49969 3.65572 9.52185 3.88706 9.52185C4.21269 9.52185 4.5314 9.48062 4.83188 9.40123C3.18928 9.088 1.95215 7.70092 1.95215 6.03877C1.95215 6.02277 1.95215 6.00862 1.95215 5.99385C2.43682 6.25108 2.98938 6.40615 3.5784 6.42462C2.61472 5.80738 1.98169 4.75938 1.98169 3.56862C1.98169 2.93969 2.15834 2.34954 2.46699 1.84492C4.2372 3.91815 6.88372 5.28492 9.86843 5.42892C9.8062 5.17785 9.77414 4.91323 9.77414 4.648C9.77414 2.75262 11.1433 1.23077 13.1272 1.23077ZM18.749 2.82462H18.7522H18.749ZM13.1272 0C10.7108 0 8.84189 1.69415 8.56152 4.032C6.55683 3.63385 4.73319 2.58708 3.42313 1.05292C3.18488 0.773538 2.83411 0.614154 2.46699 0.614154C2.4343 0.614154 2.40162 0.615385 2.36893 0.617846C1.96661 0.649231 1.60452 0.869538 1.39644 1.20985C0.962062 1.92123 0.731985 2.73662 0.731985 3.56862C0.731985 4.12308 0.833822 4.664 1.02492 5.16923C0.820621 5.392 0.703068 5.68492 0.703068 5.99385V6.03877C0.703068 7.24431 1.18648 8.36246 1.98987 9.20123C1.94398 9.41169 1.95403 9.63385 2.02444 9.84492C2.30229 10.6757 2.80645 11.3908 3.46022 11.936C3.02081 12.032 2.56757 12.0806 2.1049 12.0806C1.86037 12.0806 1.62338 12.0671 1.40021 12.04C1.3493 12.0345 1.29901 12.0314 1.24872 12.0314C0.72507 12.0314 0.2492 12.3557 0.071299 12.8529C-0.123575 13.3969 0.0914151 14.0018 0.589287 14.3071C2.36956 15.3988 4.60369 16 6.87995 16C11.1791 16 13.8489 14.0572 15.3312 12.4277C17.1291 10.4517 18.1751 7.82646 18.216 5.20308C18.7987 4.72738 19.3129 4.17846 19.7486 3.56431C19.9063 3.35877 20 3.10215 20 2.82462C20 2.40554 19.7882 2.03569 19.4644 1.81292C19.6046 1.33908 19.4437 0.825846 19.0527 0.512615C18.8245 0.330462 18.5454 0.237538 18.2644 0.237538C18.05 0.237538 17.8344 0.291692 17.6401 0.402462C17.2221 0.64 16.7751 0.827077 16.3043 0.961231C15.4393 0.364308 14.2657 0 13.1272 0Z" fill="black"/>
</svg>
