<svg width="10" height="10" viewBox="0 0 10 10" fill="none" xmlns="http://www.w3.org/2000/svg">
<path d="M3.57658 1.70419C4.2099 0.568066 4.52655 0 4.99999 0C5.47344 0 5.79009 0.568061 6.42339 1.70419L6.58724 1.99812C6.76724 2.32097 6.85719 2.4824 6.99754 2.58891C7.13784 2.69542 7.31254 2.73495 7.66204 2.81403L7.98024 2.88602C9.21004 3.16428 9.82499 3.30342 9.97129 3.77387C10.1176 4.24431 9.69839 4.73456 8.85994 5.71496L8.64304 5.96861C8.40479 6.24721 8.28564 6.38651 8.23204 6.55886C8.17849 6.73121 8.19649 6.91706 8.23249 7.28881L8.26529 7.62721C8.39204 8.93531 8.45544 9.58936 8.07244 9.88011C7.68939 10.1709 7.11364 9.90576 5.96214 9.37561L5.66424 9.23841C5.33704 9.08776 5.17344 9.01241 4.99999 9.01241C4.82654 9.01241 4.66295 9.08776 4.33575 9.23841L4.03785 9.37561C2.88634 9.90576 2.31059 10.1709 1.92757 9.88011C1.54456 9.58936 1.60794 8.93531 1.7347 7.62721L1.76749 7.28881C1.80351 6.91706 1.82152 6.73121 1.76793 6.55886C1.71434 6.38651 1.59521 6.24721 1.35696 5.96861L1.14005 5.71496C0.301626 4.73456 -0.117589 4.24431 0.0287109 3.77387C0.175011 3.30342 0.78993 3.16428 2.01977 2.88602L2.33794 2.81403C2.68742 2.73495 2.86216 2.69542 3.00247 2.58891C3.14277 2.4824 3.23276 2.32097 3.41273 1.99812L3.57658 1.70419Z" fill="#E8E8E8"/>
</svg>
